<svg width="157" height="30" viewBox="0 0 157 30" fill="none" xmlns="http://www.w3.org/2000/svg">
<path d="M23.9023 14.293V25.3672C23.4857 25.901 22.8281 26.4805 21.9297 27.1055C21.0443 27.7305 19.8854 28.2708 18.4531 28.7266C17.0208 29.1693 15.263 29.3906 13.1797 29.3906C11.3698 29.3906 9.71615 29.0911 8.21875 28.4922C6.72135 27.8802 5.43229 26.9883 4.35156 25.8164C3.27083 24.6445 2.4375 23.2122 1.85156 21.5195C1.26562 19.8268 0.972656 17.8932 0.972656 15.7188V13.8438C0.972656 11.6693 1.24609 9.73568 1.79297 8.04297C2.35286 6.35026 3.14714 4.91797 4.17578 3.74609C5.21745 2.57422 6.46094 1.68229 7.90625 1.07031C9.36458 0.458333 10.9922 0.152344 12.7891 0.152344C15.1979 0.152344 17.1771 0.549479 18.7266 1.34375C20.2891 2.13802 21.487 3.23177 22.3203 4.625C23.1536 6.00521 23.6745 7.59375 23.8828 9.39062H18.6484C18.5052 8.40104 18.2188 7.53516 17.7891 6.79297C17.3594 6.03776 16.7474 5.45182 15.9531 5.03516C15.1719 4.60547 14.1562 4.39062 12.9062 4.39062C11.8516 4.39062 10.9206 4.59896 10.1133 5.01562C9.30599 5.43229 8.62891 6.03776 8.08203 6.83203C7.53516 7.6263 7.11849 8.60938 6.83203 9.78125C6.55859 10.9531 6.42188 12.2943 6.42188 13.8047V15.7188C6.42188 17.2422 6.57812 18.5964 6.89062 19.7812C7.20312 20.9531 7.65234 21.9427 8.23828 22.75C8.83724 23.5443 9.57292 24.1497 10.4453 24.5664C11.3307 24.9701 12.3333 25.1719 13.4531 25.1719C14.4688 25.1719 15.3086 25.0872 15.9727 24.918C16.6497 24.7357 17.1901 24.5208 17.5938 24.2734C17.9974 24.026 18.3099 23.7852 18.5312 23.5508V18.2188H12.8867V14.293H23.9023ZM38.082 29.3906C36.4805 29.3906 35.0417 29.1302 33.7656 28.6094C32.4896 28.0885 31.4023 27.3659 30.5039 26.4414C29.6185 25.5039 28.9349 24.4167 28.4531 23.1797C27.9844 21.9297 27.75 20.5885 27.75 19.1562V18.375C27.75 16.7474 27.9844 15.2695 28.4531 13.9414C28.9219 12.6003 29.5859 11.4479 30.4453 10.4844C31.3047 9.52083 32.3333 8.77865 33.5312 8.25781C34.7292 7.73698 36.0508 7.47656 37.4961 7.47656C38.9935 7.47656 40.3151 7.73047 41.4609 8.23828C42.6068 8.73307 43.5638 9.4362 44.332 10.3477C45.1003 11.2591 45.6797 12.3529 46.0703 13.6289C46.4609 14.8919 46.6562 16.2917 46.6562 17.8281V19.9961H30.0938V16.4414H41.5781V16.0508C41.5521 15.2305 41.3958 14.4818 41.1094 13.8047C40.8229 13.1146 40.3802 12.5677 39.7812 12.1641C39.1823 11.7474 38.4076 11.5391 37.457 11.5391C36.6888 11.5391 36.0182 11.7083 35.4453 12.0469C34.8854 12.3724 34.4167 12.8411 34.0391 13.4531C33.6745 14.0521 33.401 14.7682 33.2188 15.6016C33.0365 16.4349 32.9453 17.3594 32.9453 18.375V19.1562C32.9453 20.0417 33.0625 20.862 33.2969 21.6172C33.5443 22.3724 33.9023 23.0299 34.3711 23.5898C34.8529 24.1367 35.4258 24.5664 36.0898 24.8789C36.7669 25.1784 37.5352 25.3281 38.3945 25.3281C39.4753 25.3281 40.4518 25.1198 41.3242 24.7031C42.2096 24.2734 42.9779 23.6419 43.6289 22.8086L46.2266 25.5039C45.7839 26.1549 45.1849 26.7799 44.4297 27.3789C43.6875 27.9779 42.7891 28.4661 41.7344 28.8438C40.6797 29.2083 39.4622 29.3906 38.082 29.3906ZM61.7344 23.2188C61.7344 22.776 61.6172 22.3789 61.3828 22.0273C61.1484 21.6758 60.7057 21.3568 60.0547 21.0703C59.4167 20.7708 58.4792 20.4909 57.2422 20.2305C56.1484 19.9961 55.1393 19.7031 54.2148 19.3516C53.2904 19 52.4961 18.5768 51.832 18.082C51.168 17.5742 50.6471 16.9818 50.2695 16.3047C49.9049 15.6146 49.7227 14.8203 49.7227 13.9219C49.7227 13.0495 49.9115 12.2292 50.2891 11.4609C50.6667 10.6797 51.2135 9.99609 51.9297 9.41016C52.6458 8.8112 53.5182 8.34245 54.5469 8.00391C55.5755 7.65234 56.7344 7.47656 58.0234 7.47656C59.8203 7.47656 61.3633 7.76953 62.6523 8.35547C63.9544 8.94141 64.9505 9.7487 65.6406 10.7773C66.3307 11.793 66.6758 12.9388 66.6758 14.2148H61.5195C61.5195 13.6549 61.3893 13.1471 61.1289 12.6914C60.8815 12.2357 60.4974 11.8711 59.9766 11.5977C59.4557 11.3112 58.7982 11.168 58.0039 11.168C57.2878 11.168 56.6823 11.2852 56.1875 11.5195C55.7057 11.7539 55.3411 12.0599 55.0938 12.4375C54.8464 12.8151 54.7227 13.2318 54.7227 13.6875C54.7227 14.026 54.7878 14.332 54.918 14.6055C55.0612 14.8659 55.2891 15.1068 55.6016 15.3281C55.9141 15.5495 56.3372 15.7513 56.8711 15.9336C57.418 16.1159 58.0885 16.2917 58.8828 16.4609C60.4583 16.7734 61.832 17.1901 63.0039 17.7109C64.1888 18.2188 65.1133 18.8958 65.7773 19.7422C66.4414 20.5885 66.7734 21.6693 66.7734 22.9844C66.7734 23.9219 66.5716 24.7812 66.168 25.5625C65.7643 26.3307 65.1784 27.0013 64.4102 27.5742C63.6419 28.1471 62.724 28.5964 61.6562 28.9219C60.5885 29.2344 59.3841 29.3906 58.043 29.3906C56.1029 29.3906 54.4622 29.0456 53.1211 28.3555C51.7799 27.6523 50.7643 26.7669 50.0742 25.6992C49.3841 24.6185 49.0391 23.4987 49.0391 22.3398H53.9805C54.0195 23.1602 54.2409 23.8177 54.6445 24.3125C55.0482 24.8073 55.556 25.1654 56.168 25.3867C56.793 25.5951 57.4505 25.6992 58.1406 25.6992C58.9219 25.6992 59.5794 25.5951 60.1133 25.3867C60.6471 25.1654 61.0508 24.8724 61.3242 24.5078C61.5977 24.1302 61.7344 23.7005 61.7344 23.2188ZM80.6992 7.86719V11.5781H68.5898V7.86719H80.6992ZM71.832 2.67188H77.0078V22.9062C77.0078 23.5312 77.0924 24.013 77.2617 24.3516C77.431 24.6901 77.6849 24.918 78.0234 25.0352C78.362 25.1523 78.7656 25.2109 79.2344 25.2109C79.5729 25.2109 79.8854 25.1914 80.1719 25.1523C80.4583 25.1133 80.6992 25.0742 80.8945 25.0352L80.9141 28.9023C80.4844 29.0456 79.9961 29.1628 79.4492 29.2539C78.9154 29.3451 78.3099 29.3906 77.6328 29.3906C76.474 29.3906 75.4583 29.1953 74.5859 28.8047C73.7135 28.401 73.0365 27.7565 72.5547 26.8711C72.0729 25.9727 71.832 24.7878 71.832 23.3164V2.67188ZM103.395 12.3008V16.5195H88.4336V12.3008H103.395ZM89.8984 0.5625V29H84.5273V0.5625H89.8984ZM107.379 0.5625V29H102.008V0.5625H107.379ZM128.668 0.5625H134.039V19.4492C134.039 21.6237 133.57 23.4531 132.633 24.9375C131.695 26.4089 130.419 27.5221 128.805 28.2773C127.19 29.0195 125.354 29.3906 123.297 29.3906C121.214 29.3906 119.358 29.0195 117.73 28.2773C116.103 27.5221 114.827 26.4089 113.902 24.9375C112.978 23.4531 112.516 21.6237 112.516 19.4492V0.5625H117.887V19.4492C117.887 20.7773 118.108 21.8646 118.551 22.7109C118.993 23.5443 119.618 24.1628 120.426 24.5664C121.233 24.9701 122.19 25.1719 123.297 25.1719C124.417 25.1719 125.374 24.9701 126.168 24.5664C126.975 24.1628 127.594 23.5443 128.023 22.7109C128.453 21.8646 128.668 20.7773 128.668 19.4492V0.5625ZM150.738 20.3672V0.5625H156.109V20.3672C156.109 22.2552 155.699 23.8763 154.879 25.2305C154.059 26.5716 152.939 27.6003 151.52 28.3164C150.1 29.0326 148.499 29.3906 146.715 29.3906C144.879 29.3906 143.251 29.0846 141.832 28.4727C140.413 27.8477 139.299 26.8971 138.492 25.6211C137.698 24.3451 137.301 22.724 137.301 20.7578H142.691C142.691 21.8255 142.854 22.6849 143.18 23.3359C143.505 23.987 143.967 24.4557 144.566 24.7422C145.178 25.0286 145.895 25.1719 146.715 25.1719C147.509 25.1719 148.206 24.9896 148.805 24.625C149.417 24.2474 149.892 23.7005 150.23 22.9844C150.569 22.2682 150.738 21.3958 150.738 20.3672Z" fill="black"/>
</svg>
